<?xml version="1.0" encoding="utf-8"?>
<!-- Svg Vector Icons : http://www.onlinewebfonts.com/icon -->
<!DOCTYPE svg PUBLIC "-//W3C//DTD SVG 1.1//EN" "http://www.w3.org/Graphics/SVG/1.1/DTD/svg11.dtd">
<svg version="1.1" xmlns="http://www.w3.org/2000/svg" xmlns:xlink="http://www.w3.org/1999/xlink" x="0px" y="0px" viewBox="0 0 1000 1000" enable-background="new 0 0 1000 1000" xml:space="preserve">
<metadata> Svg Vector Icons : http://www.onlinewebfonts.com/icon </metadata>
<g><path d="M990,212.1c-4.2,13.8-8.6,27.4-12.4,41.3c-22.6,81.3-45,162.6-67.3,243.9c-0.8,2.7-0.2,6.7,1.4,9.1c6.9,10.1,1.8,24.2-10.1,26.6c-3.1,0.6-6.3,0.5-9.5,0.5c-180.6,0-361.3,0-541.9-0.1c-5.7,0-11.4-1.5-17.9-2.4c1.1,4.1,2.5,9.1,3.8,14c8.6,32.1,17.4,64.2,25.7,96.4c1.7,6.5,4.1,8.8,11.2,8.8c171.3-0.3,342.7-0.2,514-0.2c2.7,0,5.4,0,8.1,0c15.1,0.3,21.7,8.7,18.8,23.5c-1.5,7.6-6.3,11.4-13.5,12.5c-3.4,0.5-6.8,0.3-10.3,0.3c-179.4,0-358.8,0-538.3,0c-3.4,0-6.9,0.2-10.3-0.4c-7.2-1.1-11.6-5.3-13.3-12.7c-5.6-24.7-10.9-49.6-17.5-74C268.6,441.4,226,283.8,183.6,126c-1.6-6.1-4-8.5-10.8-8.4c-47.7,0.3-95.5,0.2-143.2,0.2c-13,0-19-5.2-19.6-16.7c-0.6-12.6,5.4-19.6,18.1-19.7c50.2-0.2,100.4-0.1,150.5-0.1c6.1,0,10.8,2.6,13,7.9c1.7,4.2,4.2,4.5,7.8,4.8c11.1,0.8,16.3,5.2,19.2,15.8c35.8,132.7,71.6,265.3,107.3,398c0.5,1.9,1.1,3.7,1.9,6.1c1-1,1.9-1.4,2.3-2.2c5.4-11,14.5-14.7,26.4-14.7c128,0.2,256,0.1,384.1,0.1c42.8,0,85.7,0,128.5,0c2.9,0,5.8,0,9.2,0c10.2-38.7,20.3-77,30.7-116.5c-3.2,0-5.5,0-7.8,0c-175,0-350,0-525,0c-2,0-3.9-0.1-5.9,0.2c-10.5,1.6-14.4-0.8-16.9-10.6c-3-12,0.7-22,9.6-24.6c3.5-1,7.2-1.3,10.9-1.3c175.8-0.1,351.5-0.1,527.3,0c4.6,0,9.3,1.3,14.8,2.2c9.6-38.5,19.5-78.2,29.7-118.8c-4.3,0-7.4,0-10.5,0c-191.4,0-382.8,0-574.2,0c-2.9,0-5.9,0.1-8.8,0c-11.5-0.5-17.2-5.7-17.8-16.3c-0.6-9.8,6.7-18.6,16.8-19.8c2.9-0.4,5.9-0.2,8.8-0.2c196.8,0,393.6,0,590.4,0c3.9,0,7.9,0,11.6-1c11.7-3,20.8,0.7,28.2,9.8C990,204.2,990,208.2,990,212.1z"/><path d="M938.8,821.9c-0.5,44.1-28.4,82.3-68.1,93.4c-53.6,15-115.2-28.4-120.2-84.6c-5.6-62.1,42-104.1,102-100.7C903.7,732.8,939.4,771.6,938.8,821.9z M841.4,870.1c30.6,0,55-24.4,55.1-55c0.1-30.6-24.3-55.2-54.8-55.3c-30.8-0.1-55.8,24.8-55.6,55.4C786.2,845.6,810.9,870.1,841.4,870.1z"/><path d="M517,821.7c-0.4,48.5-33.2,88.1-79.4,96c-34.4,5.9-71.3-13.3-90.6-47c-26.5-46.4-11.6-105,33.3-129.5C439.2,709,517.2,746,517,821.7z M424.8,876.2c30.7,0.4,55.4-23.6,55.9-54.2c0.5-30.6-23.6-55.7-54-56.2c-30.9-0.5-56,23.9-56.4,54.6C369.9,850.8,394.4,875.8,424.8,876.2z"/></g>
</svg>